name rise45.9887peak57.8056fall74.9286.mot
datacolumns 19
datarows 32
range 11.91662000000000 11.96828600000000
endheader
time	ground_force1_vx	ground_force1_vy	ground_force1_vz	ground_force1_px	ground_force1_py	ground_force1_pz	ground_force2_vx	ground_force2_vy	ground_force2_vz	ground_force2_px	ground_force2_py	ground_force2_pz	ground_torque1_x	ground_torque1_y	ground_torque1_z	ground_torque2_x	ground_torque2_y	ground_torque2_z	
11.91662000000000	-44.15805500000000	826.90048300000001	50.94577300000000	0.16385400000000	0.00000000000000	0.09141700000000	0.00000000000000	0.00000000000000	0.00000000000000	0.00000000000000	0.00000000000000	0.00000000000000	0.00000000000000	22.53088700000000	0.00000000000000	0.00000000000000	0.00000000000000	0.00000000000000	
11.91829100000000	-44.89603100000000	826.25381300000004	51.02395400000000	0.16274600000000	0.00000000000000	0.09142400000000	0.00000000000000	0.00000000000000	0.00000000000000	0.00000000000000	0.00000000000000	0.00000000000000	0.00000000000000	22.53161700000000	0.00000000000000	0.00000000000000	0.00000000000000	0.00000000000000	
11.91995600000000	-45.64992600000000	825.50299800000005	51.08132100000000	0.16162800000000	0.00000000000000	0.09142900000000	0.00000000000000	0.00000000000000	0.00000000000000	0.00000000000000	0.00000000000000	0.00000000000000	0.00000000000000	22.52953300000000	0.00000000000000	0.00000000000000	0.00000000000000	0.00000000000000	
11.92162100000000	-46.41977300000000	824.64464399999997	51.11716700000000	0.16050000000000	0.00000000000000	0.09143400000000	0.00000000000000	0.00000000000000	0.00000000000000	0.00000000000000	0.00000000000000	0.00000000000000	0.00000000000000	22.52466500000000	0.00000000000000	0.00000000000000	0.00000000000000	0.00000000000000	
11.92329000000000	-47.20553600000000	823.67531399999996	51.13081900000000	0.15936300000000	0.00000000000000	0.09143800000000	0.00000000000000	0.00000000000000	0.00000000000000	0.00000000000000	0.00000000000000	0.00000000000000	0.00000000000000	22.51704700000000	0.00000000000000	0.00000000000000	0.00000000000000	0.00000000000000	
11.92495800000000	-48.00710200000000	822.59153200000003	51.12162900000000	0.15821900000000	0.00000000000000	0.09144000000000	0.00000000000000	0.00000000000000	0.00000000000000	0.00000000000000	0.00000000000000	0.00000000000000	0.00000000000000	22.50671100000000	0.00000000000000	0.00000000000000	0.00000000000000	0.00000000000000	
11.92661900000000	-48.82428000000000	821.38978699999996	51.08898300000000	0.15706800000000	0.00000000000000	0.09144100000000	-1.43764600000000	3.81668000000000	1.24960400000000	0.00000000000000	0.00000000000000	0.00000000000000	0.00000000000000	22.49369600000000	0.00000000000000	0.00000000000000	0.43004000000000	0.00000000000000	
11.92829100000000	-49.65680200000000	820.06654100000003	51.03230200000000	0.15591000000000	0.00000000000000	0.09144000000000	-2.30306600000000	7.30688400000000	2.13048500000000	0.00000000000000	0.00000000000000	0.00000000000000	0.00000000000000	22.47803700000000	0.00000000000000	0.00000000000000	0.74570700000000	0.00000000000000	
11.92995600000000	-50.50432000000000	818.61822900000004	50.95103900000000	0.15474800000000	0.00000000000000	0.09143800000000	-3.28246500000000	11.51740800000000	3.15454500000000	0.00000000000000	0.00000000000000	0.00000000000000	0.00000000000000	22.45977100000000	0.00000000000000	0.00000000000000	1.11501800000000	0.00000000000000	
11.93161900000000	-51.36640100000000	817.04127300000005	50.84468800000000	0.15358200000000	0.00000000000000	0.09143400000000	-4.34630200000000	16.40173900000000	4.29899700000000	0.00000000000000	0.00000000000000	0.00000000000000	0.00000000000000	22.43893200000000	0.00000000000000	0.00000000000000	1.53045300000000	0.00000000000000	
11.93329300000000	-52.24253200000000	815.33208100000002	50.71278000000000	0.15241300000000	0.00000000000000	0.09142800000000	-5.45761100000000	21.88138700000000	5.53314100000000	0.00000000000000	0.00000000000000	0.00000000000000	0.00000000000000	22.41555500000000	0.00000000000000	0.00000000000000	1.98164300000000	0.00000000000000	
11.93495900000000	-53.13211100000000	813.48706100000004	50.55489000000000	0.15124300000000	0.00000000000000	0.09142100000000	-6.57441300000000	27.85177400000000	6.82040700000000	0.37428700000000	0.00000000000000	-0.07087100000000	0.00000000000000	22.38966800000000	0.00000000000000	0.00000000000000	4.54291000000000	0.00000000000000	
11.93662200000000	-54.03445300000000	811.50262299999997	50.37063300000000	0.15007200000000	0.00000000000000	0.09141100000000	-7.65277600000000	34.19096800000000	8.12107200000000	0.37616600000000	0.00000000000000	-0.07156300000000	0.00000000000000	22.36129900000000	0.00000000000000	0.00000000000000	5.44715900000000	0.00000000000000	
11.93829400000000	-54.94878700000000	809.37518999999998	50.15966800000000	0.14890200000000	0.00000000000000	0.09139900000000	-8.65010800000000	40.77011400000000	9.39531700000000	0.37802500000000	0.00000000000000	-0.07218800000000	0.00000000000000	22.33046800000000	0.00000000000000	0.00000000000000	6.34666000000000	0.00000000000000	
11.93995800000000	-55.87425200000000	807.10120600000005	49.92170300000000	0.14773400000000	0.00000000000000	0.09138500000000	-9.52825500000000	47.46406600000000	10.60618600000000	0.37987400000000	0.00000000000000	-0.07275400000000	0.00000000000000	22.29719200000000	0.00000000000000	0.00000000000000	7.21728600000000	0.00000000000000	
11.94162300000000	-56.80990500000000	804.67714699999999	49.65649100000000	0.14657000000000	0.00000000000000	0.09136900000000	-10.25600000000000	54.16081800000000	11.72207900000000	0.38171800000000	0.00000000000000	-0.07327100000000	0.00000000000000	22.26148000000000	0.00000000000000	0.00000000000000	8.03800200000000	0.00000000000000	
11.94329000000000	-57.75471200000000	802.09952699999997	49.36383300000000	0.14541000000000	0.00000000000000	0.09135000000000	-10.81071900000000	60.76873400000000	12.71852100000000	0.38356100000000	0.00000000000000	-0.07374300000000	0.00000000000000	22.22333400000000	0.00000000000000	0.00000000000000	8.79207200000000	0.00000000000000	
11.94495500000000	-58.70755300000000	799.36490900000001	49.04358300000000	0.14425500000000	0.00000000000000	0.09132900000000	-11.17911900000000	67.22107500000000	13.57910400000000	0.38540300000000	0.00000000000000	-0.07417700000000	0.00000000000000	22.18274700000000	0.00000000000000	0.00000000000000	9.46776100000000	0.00000000000000	
11.94661900000000	-59.66722500000000	796.46991600000001	48.69564200000000	0.14310700000000	0.00000000000000	0.09130500000000	-11.35709800000000	73.47778000000000	14.29562200000000	0.38724700000000	0.00000000000000	-0.07457800000000	0.00000000000000	22.13970600000000	0.00000000000000	0.00000000000000	10.05851800000000	0.00000000000000	
11.94829300000000	-60.63243600000000	793.41124000000002	48.31996600000000	0.14196800000000	0.00000000000000	0.09127900000000	-11.34888600000000	79.52474800000000	14.86752200000000	0.38909100000000	0.00000000000000	-0.07494900000000	0.00000000000000	22.09418600000000	0.00000000000000	0.00000000000000	10.56271100000000	0.00000000000000	
11.94995800000000	-61.60181400000000	790.18565300000000	47.91656500000000	0.14083700000000	0.00000000000000	0.09124900000000	-11.16564200000000	85.37111600000000	15.30081100000000	0.39093500000000	0.00000000000000	-0.07529300000000	0.00000000000000	22.04615200000000	0.00000000000000	0.00000000000000	10.98300500000000	0.00000000000000	
11.95162600000000	-62.57390000000000	786.79001900000003	47.48550000000000	0.13971700000000	0.00000000000000	0.09121700000000	-10.82371600000000	91.04507500000000	15.60661400000000	0.39277700000000	0.00000000000000	-0.07561400000000	0.00000000000000	21.99555800000000	0.00000000000000	0.00000000000000	11.32549400000000	0.00000000000000	
11.95329200000000	-63.54716000000000	783.22130000000004	47.02688900000000	0.13860900000000	0.00000000000000	0.09118200000000	-10.34279900000000	96.58885100000001	15.79957000000000	0.39461500000000	0.00000000000000	-0.07591400000000	0.00000000000000	21.94235000000000	0.00000000000000	0.00000000000000	11.59870000000000	0.00000000000000	
11.95495300000000	-64.51997500000000	779.47657500000003	46.54090600000000	0.13751200000000	0.00000000000000	0.09114400000000	-9.74409500000000	102.05340500000000	15.89620200000000	0.39644800000000	0.00000000000000	-0.07619500000000	0.00000000000000	21.88645800000000	0.00000000000000	0.00000000000000	11.81254200000000	0.00000000000000	
11.95662700000000	-65.49065500000000	775.55304100000001	46.02778000000000	0.13643000000000	0.00000000000000	0.09110300000000	-9.04870500000000	107.49331500000000	15.91343300000000	0.39827200000000	0.00000000000000	-0.07646000000000	0.00000000000000	21.82780400000000	0.00000000000000	0.00000000000000	11.97736900000000	0.00000000000000	
11.95829200000000	-66.45743299999999	771.44803400000001	45.48779600000000	0.13536100000000	0.00000000000000	0.09105900000000	-8.27627200000000	112.96224400000000	15.86731000000000	0.40008400000000	0.00000000000000	-0.07671000000000	0.00000000000000	21.76629600000000	0.00000000000000	0.00000000000000	12.10311900000000	0.00000000000000	
11.95996100000000	-67.41847199999999	767.15903300000002	44.92129700000000	0.13430800000000	0.00000000000000	0.09101200000000	-7.44397900000000	118.50922799999999	15.77201700000000	0.40188300000000	0.00000000000000	-0.07694600000000	0.00000000000000	21.70183100000000	0.00000000000000	0.00000000000000	12.19864600000000	0.00000000000000	
11.96162300000000	-68.37186900000000	762.68367699999999	44.32868300000000	0.13327000000000	0.00000000000000	0.09096200000000	-6.56590400000000	124.17593300000000	15.63920800000000	0.40366500000000	0.00000000000000	-0.07717000000000	0.00000000000000	21.63429300000000	0.00000000000000	0.00000000000000	12.27124600000000	0.00000000000000	
11.96329100000000	-69.31565399999999	758.01977299999999	43.71040900000000	0.13224900000000	0.00000000000000	0.09090900000000	-5.65271500000000	129.99492400000000	15.47763200000000	0.40542600000000	0.00000000000000	-0.07738400000000	0.00000000000000	21.56355600000000	0.00000000000000	0.00000000000000	12.32638100000000	0.00000000000000	
11.96495700000000	-70.24780100000000	753.16530999999998	43.06698700000000	0.13124600000000	0.00000000000000	0.09085200000000	-4.71167600000000	135.98888900000000	15.29305400000000	0.40716500000000	0.00000000000000	-0.07758800000000	0.00000000000000	21.48948100000000	0.00000000000000	0.00000000000000	12.36758300000000	0.00000000000000	
11.96662000000000	-71.16622500000000	748.11847299999999	42.39898700000000	0.13026000000000	0.00000000000000	0.09079200000000	-3.74690000000000	142.17070600000000	15.08840700000000	0.40887700000000	0.00000000000000	-0.07778300000000	0.00000000000000	21.41191800000000	0.00000000000000	0.00000000000000	12.39652600000000	0.00000000000000	
11.96828600000000	-72.06879100000000	742.87765300000001	41.70703200000000	0.12929300000000	0.00000000000000	0.09072900000000	-2.75979000000000	148.54419500000000	14.86412600000000	0.41056100000000	0.00000000000000	-0.07797000000000	0.00000000000000	21.33070700000000	0.00000000000000	0.00000000000000	12.41321500000000	0.00000000000000	
